<mxfile host="app.diagrams.net" agent="Mozilla/5.0 (Windows NT 10.0; Win64; x64) AppleWebKit/537.36 (KHTML, like Gecko) Chrome/130.0.0.0 Safari/537.36" version="24.8.4">
  <diagram id="C5RBs43oDa-KdzZeNtuy" name="Page-1">
    <mxGraphModel dx="1665" dy="446" grid="1" gridSize="10" guides="1" tooltips="1" connect="1" arrows="1" fold="1" page="1" pageScale="1" pageWidth="827" pageHeight="1169" math="0" shadow="0">
      <root>
        <mxCell id="WIyWlLk6GJQsqaUBKTNV-0" />
        <mxCell id="WIyWlLk6GJQsqaUBKTNV-1" parent="WIyWlLk6GJQsqaUBKTNV-0" />
        <mxCell id="WIyWlLk6GJQsqaUBKTNV-3" value="Limpiar Flag" style="rounded=1;whiteSpace=wrap;html=1;fontSize=12;glass=0;strokeWidth=1;shadow=0;" parent="WIyWlLk6GJQsqaUBKTNV-1" vertex="1">
          <mxGeometry x="-810" y="60" width="120" height="40" as="geometry" />
        </mxCell>
        <mxCell id="q8S7XJCuBe0ww0jdByo5-0" value="TIMER3_IRQHandler" style="text;html=1;align=center;verticalAlign=middle;whiteSpace=wrap;rounded=0;" vertex="1" parent="WIyWlLk6GJQsqaUBKTNV-1">
          <mxGeometry x="-780" y="10" width="60" height="30" as="geometry" />
        </mxCell>
        <mxCell id="q8S7XJCuBe0ww0jdByo5-1" value="tim3_period+=100" style="rounded=1;whiteSpace=wrap;html=1;" vertex="1" parent="WIyWlLk6GJQsqaUBKTNV-1">
          <mxGeometry x="-650" y="60" width="140" height="40" as="geometry" />
        </mxCell>
        <mxCell id="q8S7XJCuBe0ww0jdByo5-2" value="" style="endArrow=classic;html=1;rounded=0;entryX=0;entryY=0.5;entryDx=0;entryDy=0;exitX=1;exitY=0.5;exitDx=0;exitDy=0;" edge="1" parent="WIyWlLk6GJQsqaUBKTNV-1" source="WIyWlLk6GJQsqaUBKTNV-3" target="q8S7XJCuBe0ww0jdByo5-1">
          <mxGeometry width="50" height="50" relative="1" as="geometry">
            <mxPoint x="-440" y="200" as="sourcePoint" />
            <mxPoint x="-390" y="150" as="targetPoint" />
          </mxGeometry>
        </mxCell>
        <mxCell id="q8S7XJCuBe0ww0jdByo5-3" value="tim3_period&amp;gt;=10000" style="rhombus;whiteSpace=wrap;html=1;" vertex="1" parent="WIyWlLk6GJQsqaUBKTNV-1">
          <mxGeometry x="-470" y="20" width="173" height="120" as="geometry" />
        </mxCell>
        <mxCell id="q8S7XJCuBe0ww0jdByo5-4" value="" style="endArrow=classic;html=1;rounded=0;entryX=0;entryY=0.5;entryDx=0;entryDy=0;exitX=1;exitY=0.5;exitDx=0;exitDy=0;" edge="1" parent="WIyWlLk6GJQsqaUBKTNV-1" source="q8S7XJCuBe0ww0jdByo5-1" target="q8S7XJCuBe0ww0jdByo5-3">
          <mxGeometry width="50" height="50" relative="1" as="geometry">
            <mxPoint x="-440" y="200" as="sourcePoint" />
            <mxPoint x="-390" y="150" as="targetPoint" />
          </mxGeometry>
        </mxCell>
        <mxCell id="q8S7XJCuBe0ww0jdByo5-5" value="tim3_period=10000" style="rounded=1;whiteSpace=wrap;html=1;" vertex="1" parent="WIyWlLk6GJQsqaUBKTNV-1">
          <mxGeometry x="-250" y="60" width="140" height="40" as="geometry" />
        </mxCell>
        <mxCell id="q8S7XJCuBe0ww0jdByo5-6" value="" style="endArrow=classic;html=1;rounded=0;entryX=0;entryY=0.5;entryDx=0;entryDy=0;exitX=1;exitY=0.5;exitDx=0;exitDy=0;" edge="1" parent="WIyWlLk6GJQsqaUBKTNV-1" source="q8S7XJCuBe0ww0jdByo5-3" target="q8S7XJCuBe0ww0jdByo5-5">
          <mxGeometry width="50" height="50" relative="1" as="geometry">
            <mxPoint x="-440" y="200" as="sourcePoint" />
            <mxPoint x="-390" y="150" as="targetPoint" />
          </mxGeometry>
        </mxCell>
        <mxCell id="q8S7XJCuBe0ww0jdByo5-7" value="SI" style="text;html=1;align=center;verticalAlign=middle;whiteSpace=wrap;rounded=0;" vertex="1" parent="WIyWlLk6GJQsqaUBKTNV-1">
          <mxGeometry x="-310" y="50" width="60" height="30" as="geometry" />
        </mxCell>
        <mxCell id="q8S7XJCuBe0ww0jdByo5-8" value="Desbordamiento timer 3 = tim3_period" style="rounded=1;whiteSpace=wrap;html=1;" vertex="1" parent="WIyWlLk6GJQsqaUBKTNV-1">
          <mxGeometry x="-255" y="150" width="150" height="50" as="geometry" />
        </mxCell>
        <mxCell id="q8S7XJCuBe0ww0jdByo5-9" value="" style="endArrow=classic;html=1;rounded=0;entryX=0.5;entryY=0;entryDx=0;entryDy=0;exitX=0.5;exitY=1;exitDx=0;exitDy=0;" edge="1" parent="WIyWlLk6GJQsqaUBKTNV-1" source="q8S7XJCuBe0ww0jdByo5-5" target="q8S7XJCuBe0ww0jdByo5-8">
          <mxGeometry width="50" height="50" relative="1" as="geometry">
            <mxPoint x="-440" y="200" as="sourcePoint" />
            <mxPoint x="-390" y="150" as="targetPoint" />
          </mxGeometry>
        </mxCell>
        <mxCell id="q8S7XJCuBe0ww0jdByo5-10" value="" style="endArrow=classic;html=1;rounded=0;entryX=0;entryY=0.5;entryDx=0;entryDy=0;exitX=0.5;exitY=1;exitDx=0;exitDy=0;" edge="1" parent="WIyWlLk6GJQsqaUBKTNV-1" source="q8S7XJCuBe0ww0jdByo5-3" target="q8S7XJCuBe0ww0jdByo5-8">
          <mxGeometry width="50" height="50" relative="1" as="geometry">
            <mxPoint x="-440" y="200" as="sourcePoint" />
            <mxPoint x="-390" y="150" as="targetPoint" />
            <Array as="points">
              <mxPoint x="-383" y="175" />
            </Array>
          </mxGeometry>
        </mxCell>
        <mxCell id="q8S7XJCuBe0ww0jdByo5-11" value="Volver al main" style="rounded=1;whiteSpace=wrap;html=1;" vertex="1" parent="WIyWlLk6GJQsqaUBKTNV-1">
          <mxGeometry x="-240" y="240" width="120" height="40" as="geometry" />
        </mxCell>
        <mxCell id="q8S7XJCuBe0ww0jdByo5-12" value="" style="endArrow=classic;html=1;rounded=0;entryX=0.5;entryY=0;entryDx=0;entryDy=0;exitX=0.5;exitY=1;exitDx=0;exitDy=0;" edge="1" parent="WIyWlLk6GJQsqaUBKTNV-1" source="q8S7XJCuBe0ww0jdByo5-8" target="q8S7XJCuBe0ww0jdByo5-11">
          <mxGeometry width="50" height="50" relative="1" as="geometry">
            <mxPoint x="-440" y="200" as="sourcePoint" />
            <mxPoint x="-390" y="150" as="targetPoint" />
          </mxGeometry>
        </mxCell>
        <mxCell id="q8S7XJCuBe0ww0jdByo5-13" value="NO" style="text;html=1;align=center;verticalAlign=middle;whiteSpace=wrap;rounded=0;" vertex="1" parent="WIyWlLk6GJQsqaUBKTNV-1">
          <mxGeometry x="-370" y="180" width="60" height="30" as="geometry" />
        </mxCell>
        <mxCell id="q8S7XJCuBe0ww0jdByo5-14" value="ADC_IRQHandler" style="text;html=1;align=center;verticalAlign=middle;whiteSpace=wrap;rounded=0;" vertex="1" parent="WIyWlLk6GJQsqaUBKTNV-1">
          <mxGeometry x="-790" y="300" width="60" height="30" as="geometry" />
        </mxCell>
        <mxCell id="q8S7XJCuBe0ww0jdByo5-15" value="Limpiar Flag" style="rounded=1;whiteSpace=wrap;html=1;" vertex="1" parent="WIyWlLk6GJQsqaUBKTNV-1">
          <mxGeometry x="-820" y="330" width="120" height="40" as="geometry" />
        </mxCell>
        <mxCell id="q8S7XJCuBe0ww0jdByo5-16" value="array[indice] = ADC1" style="rounded=1;whiteSpace=wrap;html=1;" vertex="1" parent="WIyWlLk6GJQsqaUBKTNV-1">
          <mxGeometry x="-670" y="330" width="120" height="40" as="geometry" />
        </mxCell>
        <mxCell id="q8S7XJCuBe0ww0jdByo5-17" value="" style="endArrow=classic;html=1;rounded=0;exitX=1;exitY=0.5;exitDx=0;exitDy=0;entryX=0;entryY=0.5;entryDx=0;entryDy=0;" edge="1" parent="WIyWlLk6GJQsqaUBKTNV-1" source="q8S7XJCuBe0ww0jdByo5-15" target="q8S7XJCuBe0ww0jdByo5-16">
          <mxGeometry width="50" height="50" relative="1" as="geometry">
            <mxPoint x="-440" y="360" as="sourcePoint" />
            <mxPoint x="-390" y="310" as="targetPoint" />
          </mxGeometry>
        </mxCell>
        <mxCell id="q8S7XJCuBe0ww0jdByo5-18" value="&lt;div&gt;&lt;span style=&quot;background-color: initial;&quot;&gt;suma+=array[j]&lt;/span&gt;&lt;/div&gt;&lt;div&gt;&lt;span style=&quot;background-color: initial;&quot;&gt;j++&lt;/span&gt;&lt;/div&gt;" style="rounded=1;whiteSpace=wrap;html=1;" vertex="1" parent="WIyWlLk6GJQsqaUBKTNV-1">
          <mxGeometry x="-360" y="330" width="120" height="40" as="geometry" />
        </mxCell>
        <mxCell id="q8S7XJCuBe0ww0jdByo5-19" value="j=0" style="rounded=1;whiteSpace=wrap;html=1;" vertex="1" parent="WIyWlLk6GJQsqaUBKTNV-1">
          <mxGeometry x="-510" y="330" width="120" height="40" as="geometry" />
        </mxCell>
        <mxCell id="q8S7XJCuBe0ww0jdByo5-20" value="" style="endArrow=classic;html=1;rounded=0;exitX=1;exitY=0.5;exitDx=0;exitDy=0;entryX=0;entryY=0.5;entryDx=0;entryDy=0;" edge="1" parent="WIyWlLk6GJQsqaUBKTNV-1" source="q8S7XJCuBe0ww0jdByo5-16" target="q8S7XJCuBe0ww0jdByo5-19">
          <mxGeometry width="50" height="50" relative="1" as="geometry">
            <mxPoint x="-440" y="440" as="sourcePoint" />
            <mxPoint x="-390" y="390" as="targetPoint" />
          </mxGeometry>
        </mxCell>
        <mxCell id="q8S7XJCuBe0ww0jdByo5-21" value="" style="endArrow=classic;html=1;rounded=0;entryX=0;entryY=0.5;entryDx=0;entryDy=0;exitX=1;exitY=0.5;exitDx=0;exitDy=0;" edge="1" parent="WIyWlLk6GJQsqaUBKTNV-1" source="q8S7XJCuBe0ww0jdByo5-19" target="q8S7XJCuBe0ww0jdByo5-18">
          <mxGeometry width="50" height="50" relative="1" as="geometry">
            <mxPoint x="-440" y="440" as="sourcePoint" />
            <mxPoint x="-390" y="390" as="targetPoint" />
          </mxGeometry>
        </mxCell>
        <mxCell id="q8S7XJCuBe0ww0jdByo5-22" value="j=8?" style="rhombus;whiteSpace=wrap;html=1;" vertex="1" parent="WIyWlLk6GJQsqaUBKTNV-1">
          <mxGeometry x="-340" y="400" width="80" height="80" as="geometry" />
        </mxCell>
        <mxCell id="q8S7XJCuBe0ww0jdByo5-23" value="" style="endArrow=classic;html=1;rounded=0;entryX=0.5;entryY=0;entryDx=0;entryDy=0;exitX=0.5;exitY=1;exitDx=0;exitDy=0;" edge="1" parent="WIyWlLk6GJQsqaUBKTNV-1" source="q8S7XJCuBe0ww0jdByo5-18" target="q8S7XJCuBe0ww0jdByo5-22">
          <mxGeometry width="50" height="50" relative="1" as="geometry">
            <mxPoint x="-440" y="440" as="sourcePoint" />
            <mxPoint x="-390" y="390" as="targetPoint" />
          </mxGeometry>
        </mxCell>
        <mxCell id="q8S7XJCuBe0ww0jdByo5-25" value="" style="endArrow=classic;html=1;rounded=0;entryX=1;entryY=0.5;entryDx=0;entryDy=0;exitX=1;exitY=0.5;exitDx=0;exitDy=0;" edge="1" parent="WIyWlLk6GJQsqaUBKTNV-1" source="q8S7XJCuBe0ww0jdByo5-22" target="q8S7XJCuBe0ww0jdByo5-18">
          <mxGeometry width="50" height="50" relative="1" as="geometry">
            <mxPoint x="-440" y="440" as="sourcePoint" />
            <mxPoint x="-390" y="390" as="targetPoint" />
            <Array as="points">
              <mxPoint x="-190" y="440" />
              <mxPoint x="-190" y="350" />
            </Array>
          </mxGeometry>
        </mxCell>
        <mxCell id="q8S7XJCuBe0ww0jdByo5-26" value="NO" style="text;html=1;align=center;verticalAlign=middle;whiteSpace=wrap;rounded=0;" vertex="1" parent="WIyWlLk6GJQsqaUBKTNV-1">
          <mxGeometry x="-200" y="380" width="60" height="30" as="geometry" />
        </mxCell>
        <mxCell id="q8S7XJCuBe0ww0jdByo5-27" value="SI" style="text;html=1;align=center;verticalAlign=middle;whiteSpace=wrap;rounded=0;" vertex="1" parent="WIyWlLk6GJQsqaUBKTNV-1">
          <mxGeometry x="-390" y="410" width="60" height="30" as="geometry" />
        </mxCell>
        <mxCell id="q8S7XJCuBe0ww0jdByo5-28" value="nivel_agua=suma/8&lt;div&gt;indice++&lt;/div&gt;&lt;div&gt;suma=0&lt;/div&gt;" style="rounded=1;whiteSpace=wrap;html=1;" vertex="1" parent="WIyWlLk6GJQsqaUBKTNV-1">
          <mxGeometry x="-510" y="415" width="120" height="50" as="geometry" />
        </mxCell>
        <mxCell id="q8S7XJCuBe0ww0jdByo5-29" value="" style="endArrow=classic;html=1;rounded=0;exitX=0;exitY=0.5;exitDx=0;exitDy=0;entryX=1;entryY=0.5;entryDx=0;entryDy=0;" edge="1" parent="WIyWlLk6GJQsqaUBKTNV-1" source="q8S7XJCuBe0ww0jdByo5-22" target="q8S7XJCuBe0ww0jdByo5-28">
          <mxGeometry width="50" height="50" relative="1" as="geometry">
            <mxPoint x="-340" y="440" as="sourcePoint" />
            <mxPoint x="-360" y="440" as="targetPoint" />
          </mxGeometry>
        </mxCell>
        <mxCell id="q8S7XJCuBe0ww0jdByo5-31" value="indice&amp;gt;=8" style="rhombus;whiteSpace=wrap;html=1;" vertex="1" parent="WIyWlLk6GJQsqaUBKTNV-1">
          <mxGeometry x="-620" y="400" width="80" height="80" as="geometry" />
        </mxCell>
        <mxCell id="q8S7XJCuBe0ww0jdByo5-32" value="indice=0" style="rounded=1;whiteSpace=wrap;html=1;" vertex="1" parent="WIyWlLk6GJQsqaUBKTNV-1">
          <mxGeometry x="-770" y="420" width="120" height="40" as="geometry" />
        </mxCell>
        <mxCell id="q8S7XJCuBe0ww0jdByo5-33" value="" style="endArrow=classic;html=1;rounded=0;entryX=1;entryY=0.5;entryDx=0;entryDy=0;exitX=0;exitY=0.5;exitDx=0;exitDy=0;" edge="1" parent="WIyWlLk6GJQsqaUBKTNV-1" source="q8S7XJCuBe0ww0jdByo5-28" target="q8S7XJCuBe0ww0jdByo5-31">
          <mxGeometry width="50" height="50" relative="1" as="geometry">
            <mxPoint x="-520" y="440" as="sourcePoint" />
            <mxPoint x="-390" y="390" as="targetPoint" />
          </mxGeometry>
        </mxCell>
        <mxCell id="q8S7XJCuBe0ww0jdByo5-34" value="" style="endArrow=classic;html=1;rounded=0;entryX=1;entryY=0.5;entryDx=0;entryDy=0;exitX=0;exitY=0.5;exitDx=0;exitDy=0;" edge="1" parent="WIyWlLk6GJQsqaUBKTNV-1" source="q8S7XJCuBe0ww0jdByo5-31" target="q8S7XJCuBe0ww0jdByo5-32">
          <mxGeometry width="50" height="50" relative="1" as="geometry">
            <mxPoint x="-440" y="440" as="sourcePoint" />
            <mxPoint x="-390" y="390" as="targetPoint" />
          </mxGeometry>
        </mxCell>
        <mxCell id="q8S7XJCuBe0ww0jdByo5-35" value="SI" style="text;html=1;align=center;verticalAlign=middle;whiteSpace=wrap;rounded=0;" vertex="1" parent="WIyWlLk6GJQsqaUBKTNV-1">
          <mxGeometry x="-660" y="420" width="60" height="30" as="geometry" />
        </mxCell>
        <mxCell id="q8S7XJCuBe0ww0jdByo5-37" value="nivel_agua&amp;gt;2048" style="rhombus;whiteSpace=wrap;html=1;" vertex="1" parent="WIyWlLk6GJQsqaUBKTNV-1">
          <mxGeometry x="-635" y="500" width="110" height="95" as="geometry" />
        </mxCell>
        <mxCell id="q8S7XJCuBe0ww0jdByo5-38" value="" style="endArrow=classic;html=1;rounded=0;exitX=0.5;exitY=1;exitDx=0;exitDy=0;entryX=0.5;entryY=0;entryDx=0;entryDy=0;" edge="1" parent="WIyWlLk6GJQsqaUBKTNV-1" source="q8S7XJCuBe0ww0jdByo5-31" target="q8S7XJCuBe0ww0jdByo5-37">
          <mxGeometry width="50" height="50" relative="1" as="geometry">
            <mxPoint x="-440" y="520" as="sourcePoint" />
            <mxPoint x="-390" y="470" as="targetPoint" />
          </mxGeometry>
        </mxCell>
        <mxCell id="q8S7XJCuBe0ww0jdByo5-39" value="" style="endArrow=classic;html=1;rounded=0;exitX=0.5;exitY=1;exitDx=0;exitDy=0;entryX=0;entryY=0.5;entryDx=0;entryDy=0;" edge="1" parent="WIyWlLk6GJQsqaUBKTNV-1" source="q8S7XJCuBe0ww0jdByo5-32" target="q8S7XJCuBe0ww0jdByo5-37">
          <mxGeometry width="50" height="50" relative="1" as="geometry">
            <mxPoint x="-440" y="520" as="sourcePoint" />
            <mxPoint x="-390" y="470" as="targetPoint" />
            <Array as="points">
              <mxPoint x="-710" y="548" />
            </Array>
          </mxGeometry>
        </mxCell>
        <mxCell id="q8S7XJCuBe0ww0jdByo5-40" value="NO" style="text;html=1;align=center;verticalAlign=middle;whiteSpace=wrap;rounded=0;" vertex="1" parent="WIyWlLk6GJQsqaUBKTNV-1">
          <mxGeometry x="-630" y="470" width="60" height="30" as="geometry" />
        </mxCell>
        <mxCell id="q8S7XJCuBe0ww0jdByo5-41" value="alarma_activa=1&lt;div&gt;Activar bomba de agua&lt;/div&gt;" style="rounded=1;whiteSpace=wrap;html=1;" vertex="1" parent="WIyWlLk6GJQsqaUBKTNV-1">
          <mxGeometry x="-490" y="517.5" width="130" height="60" as="geometry" />
        </mxCell>
        <mxCell id="q8S7XJCuBe0ww0jdByo5-42" value="Habilitar contador&lt;div&gt;del TIMER 3&lt;/div&gt;" style="rounded=1;whiteSpace=wrap;html=1;" vertex="1" parent="WIyWlLk6GJQsqaUBKTNV-1">
          <mxGeometry x="-330" y="517.5" width="120" height="60" as="geometry" />
        </mxCell>
        <mxCell id="q8S7XJCuBe0ww0jdByo5-43" value="" style="endArrow=classic;html=1;rounded=0;exitX=1;exitY=0.5;exitDx=0;exitDy=0;entryX=0;entryY=0.5;entryDx=0;entryDy=0;" edge="1" parent="WIyWlLk6GJQsqaUBKTNV-1" source="q8S7XJCuBe0ww0jdByo5-37" target="q8S7XJCuBe0ww0jdByo5-41">
          <mxGeometry width="50" height="50" relative="1" as="geometry">
            <mxPoint x="-440" y="520" as="sourcePoint" />
            <mxPoint x="-390" y="470" as="targetPoint" />
          </mxGeometry>
        </mxCell>
        <mxCell id="q8S7XJCuBe0ww0jdByo5-44" value="" style="endArrow=classic;html=1;rounded=0;entryX=0;entryY=0.5;entryDx=0;entryDy=0;exitX=1;exitY=0.5;exitDx=0;exitDy=0;" edge="1" parent="WIyWlLk6GJQsqaUBKTNV-1" source="q8S7XJCuBe0ww0jdByo5-41" target="q8S7XJCuBe0ww0jdByo5-42">
          <mxGeometry width="50" height="50" relative="1" as="geometry">
            <mxPoint x="-440" y="520" as="sourcePoint" />
            <mxPoint x="-390" y="470" as="targetPoint" />
          </mxGeometry>
        </mxCell>
        <mxCell id="q8S7XJCuBe0ww0jdByo5-45" value="SI" style="text;html=1;align=center;verticalAlign=middle;whiteSpace=wrap;rounded=0;" vertex="1" parent="WIyWlLk6GJQsqaUBKTNV-1">
          <mxGeometry x="-540" y="517.5" width="60" height="30" as="geometry" />
        </mxCell>
        <mxCell id="q8S7XJCuBe0ww0jdByo5-46" value="NO" style="text;html=1;align=center;verticalAlign=middle;whiteSpace=wrap;rounded=0;" vertex="1" parent="WIyWlLk6GJQsqaUBKTNV-1">
          <mxGeometry x="-585" y="595" width="60" height="30" as="geometry" />
        </mxCell>
        <mxCell id="q8S7XJCuBe0ww0jdByo5-47" value="alarma_activa=0&lt;div&gt;Deshabilito contador del TIMER 3&lt;/div&gt;" style="rounded=1;whiteSpace=wrap;html=1;" vertex="1" parent="WIyWlLk6GJQsqaUBKTNV-1">
          <mxGeometry x="-510" y="595" width="120" height="60" as="geometry" />
        </mxCell>
        <mxCell id="q8S7XJCuBe0ww0jdByo5-48" value="Contador TIMER 3 = 0&lt;div&gt;tim3_period = 5000&lt;/div&gt;&lt;div&gt;Desactivar bomba de agua&lt;/div&gt;" style="rounded=1;whiteSpace=wrap;html=1;" vertex="1" parent="WIyWlLk6GJQsqaUBKTNV-1">
          <mxGeometry x="-350" y="595" width="140" height="60" as="geometry" />
        </mxCell>
        <mxCell id="q8S7XJCuBe0ww0jdByo5-49" value="" style="endArrow=classic;html=1;rounded=0;exitX=0.5;exitY=1;exitDx=0;exitDy=0;entryX=0;entryY=0.5;entryDx=0;entryDy=0;" edge="1" parent="WIyWlLk6GJQsqaUBKTNV-1" source="q8S7XJCuBe0ww0jdByo5-37" target="q8S7XJCuBe0ww0jdByo5-47">
          <mxGeometry width="50" height="50" relative="1" as="geometry">
            <mxPoint x="-440" y="600" as="sourcePoint" />
            <mxPoint x="-390" y="550" as="targetPoint" />
            <Array as="points">
              <mxPoint x="-580" y="625" />
            </Array>
          </mxGeometry>
        </mxCell>
        <mxCell id="q8S7XJCuBe0ww0jdByo5-50" value="" style="endArrow=classic;html=1;rounded=0;entryX=0;entryY=0.5;entryDx=0;entryDy=0;exitX=1;exitY=0.5;exitDx=0;exitDy=0;" edge="1" parent="WIyWlLk6GJQsqaUBKTNV-1" source="q8S7XJCuBe0ww0jdByo5-47" target="q8S7XJCuBe0ww0jdByo5-48">
          <mxGeometry width="50" height="50" relative="1" as="geometry">
            <mxPoint x="-440" y="600" as="sourcePoint" />
            <mxPoint x="-390" y="550" as="targetPoint" />
          </mxGeometry>
        </mxCell>
        <mxCell id="q8S7XJCuBe0ww0jdByo5-51" value="Enviar nivel_agua&lt;div&gt;al UART usando DMA&lt;/div&gt;" style="rounded=1;whiteSpace=wrap;html=1;" vertex="1" parent="WIyWlLk6GJQsqaUBKTNV-1">
          <mxGeometry x="-160" y="560" width="130" height="60" as="geometry" />
        </mxCell>
        <mxCell id="q8S7XJCuBe0ww0jdByo5-52" value="Volver al main" style="rounded=1;whiteSpace=wrap;html=1;" vertex="1" parent="WIyWlLk6GJQsqaUBKTNV-1">
          <mxGeometry x="-155" y="440" width="120" height="60" as="geometry" />
        </mxCell>
        <mxCell id="q8S7XJCuBe0ww0jdByo5-53" value="" style="endArrow=classic;html=1;rounded=0;entryX=0.5;entryY=1;entryDx=0;entryDy=0;exitX=0.5;exitY=0;exitDx=0;exitDy=0;" edge="1" parent="WIyWlLk6GJQsqaUBKTNV-1" source="q8S7XJCuBe0ww0jdByo5-51" target="q8S7XJCuBe0ww0jdByo5-52">
          <mxGeometry width="50" height="50" relative="1" as="geometry">
            <mxPoint x="-440" y="520" as="sourcePoint" />
            <mxPoint x="-390" y="470" as="targetPoint" />
          </mxGeometry>
        </mxCell>
        <mxCell id="q8S7XJCuBe0ww0jdByo5-54" value="" style="endArrow=classic;html=1;rounded=0;entryX=0;entryY=0.5;entryDx=0;entryDy=0;exitX=1;exitY=0.5;exitDx=0;exitDy=0;" edge="1" parent="WIyWlLk6GJQsqaUBKTNV-1" source="q8S7XJCuBe0ww0jdByo5-42" target="q8S7XJCuBe0ww0jdByo5-51">
          <mxGeometry width="50" height="50" relative="1" as="geometry">
            <mxPoint x="-440" y="520" as="sourcePoint" />
            <mxPoint x="-390" y="470" as="targetPoint" />
            <Array as="points">
              <mxPoint x="-180" y="548" />
              <mxPoint x="-180" y="590" />
            </Array>
          </mxGeometry>
        </mxCell>
        <mxCell id="q8S7XJCuBe0ww0jdByo5-55" value="" style="endArrow=classic;html=1;rounded=0;exitX=1;exitY=0.5;exitDx=0;exitDy=0;entryX=0;entryY=0.5;entryDx=0;entryDy=0;" edge="1" parent="WIyWlLk6GJQsqaUBKTNV-1" source="q8S7XJCuBe0ww0jdByo5-48" target="q8S7XJCuBe0ww0jdByo5-51">
          <mxGeometry width="50" height="50" relative="1" as="geometry">
            <mxPoint x="-440" y="520" as="sourcePoint" />
            <mxPoint x="-180" y="590" as="targetPoint" />
            <Array as="points">
              <mxPoint x="-180" y="625" />
              <mxPoint x="-180" y="590" />
            </Array>
          </mxGeometry>
        </mxCell>
        <mxCell id="q8S7XJCuBe0ww0jdByo5-56" value="SysTick_IRQHandler" style="text;html=1;align=center;verticalAlign=middle;whiteSpace=wrap;rounded=0;" vertex="1" parent="WIyWlLk6GJQsqaUBKTNV-1">
          <mxGeometry x="-780" y="700" width="60" height="30" as="geometry" />
        </mxCell>
        <mxCell id="q8S7XJCuBe0ww0jdByo5-57" value="Limpiar Flag" style="rounded=1;whiteSpace=wrap;html=1;" vertex="1" parent="WIyWlLk6GJQsqaUBKTNV-1">
          <mxGeometry x="-810" y="730" width="120" height="40" as="geometry" />
        </mxCell>
        <mxCell id="q8S7XJCuBe0ww0jdByo5-58" value="contador_systick++" style="rounded=1;whiteSpace=wrap;html=1;" vertex="1" parent="WIyWlLk6GJQsqaUBKTNV-1">
          <mxGeometry x="-650" y="730" width="120" height="40" as="geometry" />
        </mxCell>
        <mxCell id="q8S7XJCuBe0ww0jdByo5-59" value="" style="endArrow=classic;html=1;rounded=0;exitX=1;exitY=0.5;exitDx=0;exitDy=0;entryX=0;entryY=0.5;entryDx=0;entryDy=0;" edge="1" parent="WIyWlLk6GJQsqaUBKTNV-1" source="q8S7XJCuBe0ww0jdByo5-57" target="q8S7XJCuBe0ww0jdByo5-58">
          <mxGeometry width="50" height="50" relative="1" as="geometry">
            <mxPoint x="-440" y="760" as="sourcePoint" />
            <mxPoint x="-390" y="710" as="targetPoint" />
          </mxGeometry>
        </mxCell>
        <mxCell id="q8S7XJCuBe0ww0jdByo5-60" value="alarma_activa=1" style="rhombus;whiteSpace=wrap;html=1;" vertex="1" parent="WIyWlLk6GJQsqaUBKTNV-1">
          <mxGeometry x="-490" y="705" width="100" height="90" as="geometry" />
        </mxCell>
        <mxCell id="q8S7XJCuBe0ww0jdByo5-61" value="" style="endArrow=classic;html=1;rounded=0;entryX=0;entryY=0.5;entryDx=0;entryDy=0;exitX=1;exitY=0.5;exitDx=0;exitDy=0;" edge="1" parent="WIyWlLk6GJQsqaUBKTNV-1" source="q8S7XJCuBe0ww0jdByo5-58" target="q8S7XJCuBe0ww0jdByo5-60">
          <mxGeometry width="50" height="50" relative="1" as="geometry">
            <mxPoint x="-540" y="760" as="sourcePoint" />
            <mxPoint x="-490" y="710" as="targetPoint" />
          </mxGeometry>
        </mxCell>
        <mxCell id="q8S7XJCuBe0ww0jdByo5-62" value="led_blink_delay=500" style="rounded=1;whiteSpace=wrap;html=1;" vertex="1" parent="WIyWlLk6GJQsqaUBKTNV-1">
          <mxGeometry x="-360" y="730" width="120" height="40" as="geometry" />
        </mxCell>
        <mxCell id="q8S7XJCuBe0ww0jdByo5-63" value="" style="endArrow=classic;html=1;rounded=0;entryX=0;entryY=0.5;entryDx=0;entryDy=0;exitX=1;exitY=0.5;exitDx=0;exitDy=0;" edge="1" parent="WIyWlLk6GJQsqaUBKTNV-1" source="q8S7XJCuBe0ww0jdByo5-60" target="q8S7XJCuBe0ww0jdByo5-62">
          <mxGeometry width="50" height="50" relative="1" as="geometry">
            <mxPoint x="-540" y="760" as="sourcePoint" />
            <mxPoint x="-490" y="710" as="targetPoint" />
          </mxGeometry>
        </mxCell>
        <mxCell id="q8S7XJCuBe0ww0jdByo5-64" value="led_blink_delay=2000" style="rounded=1;whiteSpace=wrap;html=1;" vertex="1" parent="WIyWlLk6GJQsqaUBKTNV-1">
          <mxGeometry x="-500" y="830" width="120" height="40" as="geometry" />
        </mxCell>
        <mxCell id="q8S7XJCuBe0ww0jdByo5-65" value="" style="endArrow=classic;html=1;rounded=0;entryX=0.5;entryY=0;entryDx=0;entryDy=0;exitX=0.5;exitY=1;exitDx=0;exitDy=0;" edge="1" parent="WIyWlLk6GJQsqaUBKTNV-1" source="q8S7XJCuBe0ww0jdByo5-60" target="q8S7XJCuBe0ww0jdByo5-64">
          <mxGeometry width="50" height="50" relative="1" as="geometry">
            <mxPoint x="-540" y="760" as="sourcePoint" />
            <mxPoint x="-490" y="710" as="targetPoint" />
          </mxGeometry>
        </mxCell>
        <mxCell id="q8S7XJCuBe0ww0jdByo5-66" value="SI" style="text;html=1;align=center;verticalAlign=middle;whiteSpace=wrap;rounded=0;" vertex="1" parent="WIyWlLk6GJQsqaUBKTNV-1">
          <mxGeometry x="-410" y="720" width="60" height="30" as="geometry" />
        </mxCell>
        <mxCell id="q8S7XJCuBe0ww0jdByo5-67" value="NO" style="text;html=1;align=center;verticalAlign=middle;whiteSpace=wrap;rounded=0;" vertex="1" parent="WIyWlLk6GJQsqaUBKTNV-1">
          <mxGeometry x="-450" y="800" width="60" height="30" as="geometry" />
        </mxCell>
        <mxCell id="q8S7XJCuBe0ww0jdByo5-68" value="contador_systick&amp;gt;=&lt;div&gt;led_blink_delay&lt;/div&gt;" style="rhombus;whiteSpace=wrap;html=1;" vertex="1" parent="WIyWlLk6GJQsqaUBKTNV-1">
          <mxGeometry x="-350" y="795" width="130" height="110" as="geometry" />
        </mxCell>
        <mxCell id="q8S7XJCuBe0ww0jdByo5-70" value="" style="endArrow=classic;html=1;rounded=0;entryX=0;entryY=0.5;entryDx=0;entryDy=0;exitX=1;exitY=0.5;exitDx=0;exitDy=0;" edge="1" parent="WIyWlLk6GJQsqaUBKTNV-1" source="q8S7XJCuBe0ww0jdByo5-64" target="q8S7XJCuBe0ww0jdByo5-68">
          <mxGeometry width="50" height="50" relative="1" as="geometry">
            <mxPoint x="-490" y="760" as="sourcePoint" />
            <mxPoint x="-440" y="710" as="targetPoint" />
          </mxGeometry>
        </mxCell>
        <mxCell id="q8S7XJCuBe0ww0jdByo5-71" value="" style="endArrow=classic;html=1;rounded=0;entryX=0.5;entryY=0;entryDx=0;entryDy=0;exitX=0.628;exitY=1.08;exitDx=0;exitDy=0;exitPerimeter=0;" edge="1" parent="WIyWlLk6GJQsqaUBKTNV-1" source="q8S7XJCuBe0ww0jdByo5-62" target="q8S7XJCuBe0ww0jdByo5-68">
          <mxGeometry width="50" height="50" relative="1" as="geometry">
            <mxPoint x="-490" y="840" as="sourcePoint" />
            <mxPoint x="-440" y="790" as="targetPoint" />
          </mxGeometry>
        </mxCell>
        <mxCell id="q8S7XJCuBe0ww0jdByo5-72" value="Cambia el estado del LED&lt;div&gt;contador_systick=0&lt;/div&gt;" style="rounded=1;whiteSpace=wrap;html=1;" vertex="1" parent="WIyWlLk6GJQsqaUBKTNV-1">
          <mxGeometry x="-380" y="930" width="190" height="60" as="geometry" />
        </mxCell>
        <mxCell id="q8S7XJCuBe0ww0jdByo5-73" value="" style="endArrow=classic;html=1;rounded=0;entryX=0.5;entryY=0;entryDx=0;entryDy=0;exitX=0.5;exitY=1;exitDx=0;exitDy=0;" edge="1" parent="WIyWlLk6GJQsqaUBKTNV-1" source="q8S7XJCuBe0ww0jdByo5-68" target="q8S7XJCuBe0ww0jdByo5-72">
          <mxGeometry width="50" height="50" relative="1" as="geometry">
            <mxPoint x="-520" y="920" as="sourcePoint" />
            <mxPoint x="-470" y="870" as="targetPoint" />
          </mxGeometry>
        </mxCell>
        <mxCell id="q8S7XJCuBe0ww0jdByo5-74" value="Volver al main" style="rounded=1;whiteSpace=wrap;html=1;" vertex="1" parent="WIyWlLk6GJQsqaUBKTNV-1">
          <mxGeometry x="-170" y="820" width="120" height="60" as="geometry" />
        </mxCell>
        <mxCell id="q8S7XJCuBe0ww0jdByo5-75" value="SI" style="text;html=1;align=center;verticalAlign=middle;whiteSpace=wrap;rounded=0;" vertex="1" parent="WIyWlLk6GJQsqaUBKTNV-1">
          <mxGeometry x="-297" y="900" width="60" height="30" as="geometry" />
        </mxCell>
        <mxCell id="q8S7XJCuBe0ww0jdByo5-76" value="" style="endArrow=classic;html=1;rounded=0;entryX=0;entryY=0.5;entryDx=0;entryDy=0;exitX=1;exitY=0.5;exitDx=0;exitDy=0;" edge="1" parent="WIyWlLk6GJQsqaUBKTNV-1" source="q8S7XJCuBe0ww0jdByo5-68" target="q8S7XJCuBe0ww0jdByo5-74">
          <mxGeometry width="50" height="50" relative="1" as="geometry">
            <mxPoint x="-340" y="920" as="sourcePoint" />
            <mxPoint x="-290" y="870" as="targetPoint" />
          </mxGeometry>
        </mxCell>
        <mxCell id="q8S7XJCuBe0ww0jdByo5-77" value="NO" style="text;html=1;align=center;verticalAlign=middle;whiteSpace=wrap;rounded=0;" vertex="1" parent="WIyWlLk6GJQsqaUBKTNV-1">
          <mxGeometry x="-220" y="820" width="60" height="30" as="geometry" />
        </mxCell>
        <mxCell id="q8S7XJCuBe0ww0jdByo5-78" value="" style="endArrow=classic;html=1;rounded=0;entryX=0.5;entryY=1;entryDx=0;entryDy=0;exitX=1;exitY=0.5;exitDx=0;exitDy=0;" edge="1" parent="WIyWlLk6GJQsqaUBKTNV-1" source="q8S7XJCuBe0ww0jdByo5-72" target="q8S7XJCuBe0ww0jdByo5-74">
          <mxGeometry width="50" height="50" relative="1" as="geometry">
            <mxPoint x="-340" y="920" as="sourcePoint" />
            <mxPoint x="-290" y="870" as="targetPoint" />
            <Array as="points">
              <mxPoint x="-110" y="960" />
            </Array>
          </mxGeometry>
        </mxCell>
      </root>
    </mxGraphModel>
  </diagram>
</mxfile>
